<?xml version="1.0" encoding="UTF-8" standalone="no"?>
<!DOCTYPE svg PUBLIC "-//W3C//DTD SVG 1.1//EN"
 "http://www.w3.org/Graphics/SVG/1.1/DTD/svg11.dtd">
<!-- Generated by graphviz version 2.40.1 (20161225.0304)
 -->
<!-- Title: inheritance400f5ba453 Pages: 1 -->
<svg width="397pt" height="508pt"
 viewBox="0.00 0.00 397.00 508.00" xmlns="http://www.w3.org/2000/svg" xmlns:xlink="http://www.w3.org/1999/xlink">
<g id="graph0" class="graph" transform="scale(1 1) rotate(0) translate(4 504)">
<title>inheritance400f5ba453</title>
<polygon fill="#ffffff" stroke="transparent" points="-4,4 -4,-504 393,-504 393,4 -4,4"/>
<!-- AbundParser -->
<g id="node1" class="node">
<title>AbundParser</title>
<g id="a_node1"><a xlink:href="../../api/fiasco.io.sources.AbundParser.html#fiasco.io.sources.AbundParser" xlink:title="AbundParser" target="_top">
<polygon fill="none" stroke="#000000" stroke-width=".5" points="168.5,-352 108.5,-352 108.5,-333 168.5,-333 168.5,-352"/>
<text text-anchor="middle" x="138.5" y="-340" font-family="Vera Sans, DejaVu Sans, Liberation Sans, Arial, Helvetica, sans" font-size="10.00" fill="#000000">AbundParser</text>
</a>
</g>
</g>
<!-- GenericParser -->
<g id="node2" class="node">
<title>GenericParser</title>
<g id="a_node2"><a xlink:href="../../api/fiasco.io.GenericParser.html#fiasco.io.GenericParser" xlink:title="Base class for CHIANTI file parsers" target="_top">
<polygon fill="none" stroke="#000000" stroke-width=".5" points="65,-185 0,-185 0,-166 65,-166 65,-185"/>
<text text-anchor="middle" x="32.5" y="-173" font-family="Vera Sans, DejaVu Sans, Liberation Sans, Arial, Helvetica, sans" font-size="10.00" fill="#000000">GenericParser</text>
</a>
</g>
</g>
<!-- GenericParser&#45;&gt;AbundParser -->
<g id="edge1" class="edge">
<title>GenericParser&#45;&gt;AbundParser</title>
<path fill="none" stroke="#000000" stroke-width=".5" d="M34.526,-185.1686C40.3931,-210.9954 59.6744,-282.4825 101,-324.5 103.0255,-326.5595 105.3336,-328.4148 107.7865,-330.0795"/>
<polygon fill="#000000" stroke="#000000" stroke-width=".5" points="107.1526,-331.7441 112.3283,-332.873 108.9863,-328.7629 107.1526,-331.7441"/>
</g>
<!-- GenericIonParser -->
<g id="node4" class="node">
<title>GenericIonParser</title>
<g id="a_node4"><a xlink:href="../../api/fiasco.io.GenericIonParser.html#fiasco.io.GenericIonParser" xlink:title="Base class for CHIANTI files attached to a particular ion" target="_top">
<polygon fill="none" stroke="#000000" stroke-width=".5" points="176,-315 101,-315 101,-296 176,-296 176,-315"/>
<text text-anchor="middle" x="138.5" y="-303" font-family="Vera Sans, DejaVu Sans, Liberation Sans, Arial, Helvetica, sans" font-size="10.00" fill="#000000">GenericIonParser</text>
</a>
</g>
</g>
<!-- GenericParser&#45;&gt;GenericIonParser -->
<g id="edge9" class="edge">
<title>GenericParser&#45;&gt;GenericIonParser</title>
<path fill="none" stroke="#000000" stroke-width=".5" d="M36.1699,-185.1626C44.6201,-206.2822 67.3432,-257.0936 101,-287.5 103.3913,-289.6603 106.0884,-291.6145 108.912,-293.3686"/>
<polygon fill="#000000" stroke="#000000" stroke-width=".5" points="108.22,-294.9893 113.4275,-295.9615 109.9629,-291.954 108.22,-294.9893"/>
</g>
<!-- GffguParser -->
<g id="node11" class="node">
<title>GffguParser</title>
<g id="a_node11"><a xlink:href="../../api/fiasco.io.sources.GffguParser.html#fiasco.io.sources.GffguParser" xlink:title="Free&#45;free Gaunt factor as a function of scaled frequency and energy" target="_top">
<polygon fill="none" stroke="#000000" stroke-width=".5" points="167,-278 110,-278 110,-259 167,-259 167,-278"/>
<text text-anchor="middle" x="138.5" y="-266" font-family="Vera Sans, DejaVu Sans, Liberation Sans, Arial, Helvetica, sans" font-size="10.00" fill="#000000">GffguParser</text>
</a>
</g>
</g>
<!-- GenericParser&#45;&gt;GffguParser -->
<g id="edge10" class="edge">
<title>GenericParser&#45;&gt;GffguParser</title>
<path fill="none" stroke="#000000" stroke-width=".5" d="M39.6059,-185.1634C51.1497,-200.3569 75.2879,-230.0963 101,-249.5 104.3498,-252.0279 108.0866,-254.3788 111.8676,-256.5046"/>
<polygon fill="#000000" stroke="#000000" stroke-width=".5" points="111.0739,-258.0647 116.306,-258.8938 112.7329,-254.9829 111.0739,-258.0647"/>
</g>
<!-- HSeqParser -->
<g id="node13" class="node">
<title>HSeqParser</title>
<g id="a_node13"><a xlink:href="../../api/fiasco.io.sources.HSeqParser.html#fiasco.io.sources.HSeqParser" xlink:title="Parameters for calculating two&#45;photon continuum for hydrogen&#45;like ions" target="_top">
<polygon fill="none" stroke="#000000" stroke-width=".5" points="167,-241 110,-241 110,-222 167,-222 167,-241"/>
<text text-anchor="middle" x="138.5" y="-229" font-family="Vera Sans, DejaVu Sans, Liberation Sans, Arial, Helvetica, sans" font-size="10.00" fill="#000000">HSeqParser</text>
</a>
</g>
</g>
<!-- GenericParser&#45;&gt;HSeqParser -->
<g id="edge12" class="edge">
<title>GenericParser&#45;&gt;HSeqParser</title>
<path fill="none" stroke="#000000" stroke-width=".5" d="M49.8884,-185.0555C63.6941,-192.6026 83.5154,-203.3505 101,-212.5 105.4619,-214.8349 110.2428,-217.2914 114.8466,-219.6344"/>
<polygon fill="#000000" stroke="#000000" stroke-width=".5" points="114.1223,-221.2292 119.3731,-221.9308 115.7059,-218.1079 114.1223,-221.2292"/>
</g>
<!-- HeSeqParser -->
<g id="node14" class="node">
<title>HeSeqParser</title>
<g id="a_node14"><a xlink:href="../../api/fiasco.io.sources.HeSeqParser.html#fiasco.io.sources.HeSeqParser" xlink:title="Parameters for calculating two&#45;photon continuum for helium&#45;like ions." target="_top">
<polygon fill="none" stroke="#000000" stroke-width=".5" points="169.5,-204 107.5,-204 107.5,-185 169.5,-185 169.5,-204"/>
<text text-anchor="middle" x="138.5" y="-192" font-family="Vera Sans, DejaVu Sans, Liberation Sans, Arial, Helvetica, sans" font-size="10.00" fill="#000000">HeSeqParser</text>
</a>
</g>
</g>
<!-- GenericParser&#45;&gt;HeSeqParser -->
<g id="edge13" class="edge">
<title>GenericParser&#45;&gt;HeSeqParser</title>
<path fill="none" stroke="#000000" stroke-width=".5" d="M65.1684,-181.3557C76.8783,-183.4546 90.149,-185.8333 102.1515,-187.9847"/>
<polygon fill="#000000" stroke="#000000" stroke-width=".5" points="101.9791,-189.7316 107.2095,-188.8913 102.5967,-186.2865 101.9791,-189.7316"/>
</g>
<!-- IoneqParser -->
<g id="node15" class="node">
<title>IoneqParser</title>
<g id="a_node15"><a xlink:href="../../api/fiasco.io.sources.IoneqParser.html#fiasco.io.sources.IoneqParser" xlink:title="IoneqParser" target="_top">
<polygon fill="none" stroke="#000000" stroke-width=".5" points="167,-167 110,-167 110,-148 167,-148 167,-167"/>
<text text-anchor="middle" x="138.5" y="-155" font-family="Vera Sans, DejaVu Sans, Liberation Sans, Arial, Helvetica, sans" font-size="10.00" fill="#000000">IoneqParser</text>
</a>
</g>
</g>
<!-- GenericParser&#45;&gt;IoneqParser -->
<g id="edge14" class="edge">
<title>GenericParser&#45;&gt;IoneqParser</title>
<path fill="none" stroke="#000000" stroke-width=".5" d="M65.1684,-169.9525C77.7347,-167.8186 92.0984,-165.3795 104.7633,-163.2289"/>
<polygon fill="#000000" stroke="#000000" stroke-width=".5" points="105.0725,-164.9515 109.7089,-162.389 104.4865,-161.5009 105.0725,-164.9515"/>
</g>
<!-- IpParser -->
<g id="node16" class="node">
<title>IpParser</title>
<g id="a_node16"><a xlink:href="../../api/fiasco.io.sources.IpParser.html#fiasco.io.sources.IpParser" xlink:title="IpParser" target="_top">
<polygon fill="none" stroke="#000000" stroke-width=".5" points="165.5,-130 111.5,-130 111.5,-111 165.5,-111 165.5,-130"/>
<text text-anchor="middle" x="138.5" y="-118" font-family="Vera Sans, DejaVu Sans, Liberation Sans, Arial, Helvetica, sans" font-size="10.00" fill="#000000">IpParser</text>
</a>
</g>
</g>
<!-- GenericParser&#45;&gt;IpParser -->
<g id="edge15" class="edge">
<title>GenericParser&#45;&gt;IpParser</title>
<path fill="none" stroke="#000000" stroke-width=".5" d="M49.5524,-165.9962C63.3392,-158.3835 83.2979,-147.5229 101,-138.5 105.0635,-136.4288 109.4044,-134.284 113.6385,-132.228"/>
<polygon fill="#000000" stroke="#000000" stroke-width=".5" points="114.4305,-133.789 118.1728,-130.0396 112.9092,-130.6369 114.4305,-133.789"/>
</g>
<!-- ItohParser -->
<g id="node17" class="node">
<title>ItohParser</title>
<g id="a_node17"><a xlink:href="../../api/fiasco.io.sources.ItohParser.html#fiasco.io.sources.ItohParser" xlink:title="Fit parameters for calculating relativistic free&#45;free Gaunt factor using the method of [1]_." target="_top">
<polygon fill="none" stroke="#000000" stroke-width=".5" points="165.5,-93 111.5,-93 111.5,-74 165.5,-74 165.5,-93"/>
<text text-anchor="middle" x="138.5" y="-81" font-family="Vera Sans, DejaVu Sans, Liberation Sans, Arial, Helvetica, sans" font-size="10.00" fill="#000000">ItohParser</text>
</a>
</g>
</g>
<!-- GenericParser&#45;&gt;ItohParser -->
<g id="edge16" class="edge">
<title>GenericParser&#45;&gt;ItohParser</title>
<path fill="none" stroke="#000000" stroke-width=".5" d="M39.5569,-165.7709C51.0335,-150.4874 75.0813,-120.6269 101,-101.5 103.9562,-99.3185 107.2184,-97.2931 110.5483,-95.448"/>
<polygon fill="#000000" stroke="#000000" stroke-width=".5" points="111.5003,-96.9246 115.1086,-93.046 109.8692,-93.8279 111.5003,-96.9246"/>
</g>
<!-- KlgfbParser -->
<g id="node18" class="node">
<title>KlgfbParser</title>
<g id="a_node18"><a xlink:href="../../api/fiasco.io.sources.KlgfbParser.html#fiasco.io.sources.KlgfbParser" xlink:title="Free&#45;bound gaunt factor as a function of photon energy for several different energy levels." target="_top">
<polygon fill="none" stroke="#000000" stroke-width=".5" points="166.5,-56 110.5,-56 110.5,-37 166.5,-37 166.5,-56"/>
<text text-anchor="middle" x="138.5" y="-44" font-family="Vera Sans, DejaVu Sans, Liberation Sans, Arial, Helvetica, sans" font-size="10.00" fill="#000000">KlgfbParser</text>
</a>
</g>
</g>
<!-- GenericParser&#45;&gt;KlgfbParser -->
<g id="edge17" class="edge">
<title>GenericParser&#45;&gt;KlgfbParser</title>
<path fill="none" stroke="#000000" stroke-width=".5" d="M36.1934,-165.9247C44.6905,-144.9959 67.5012,-94.6421 101,-64.5 103.3956,-62.3444 106.0955,-60.3934 108.9208,-58.6412"/>
<polygon fill="#000000" stroke="#000000" stroke-width=".5" points="109.9715,-60.056 113.4381,-56.0503 108.2302,-57.0199 109.9715,-60.056"/>
</g>
<!-- VernerParser -->
<g id="node24" class="node">
<title>VernerParser</title>
<g id="a_node24"><a xlink:href="../../api/fiasco.io.sources.VernerParser.html#fiasco.io.sources.VernerParser" xlink:title="Fit parameters for calculating partial photoionization cross&#45;sections using the method of [1]_" target="_top">
<polygon fill="none" stroke="#000000" stroke-width=".5" points="169,-19 108,-19 108,0 169,0 169,-19"/>
<text text-anchor="middle" x="138.5" y="-7" font-family="Vera Sans, DejaVu Sans, Liberation Sans, Arial, Helvetica, sans" font-size="10.00" fill="#000000">VernerParser</text>
</a>
</g>
</g>
<!-- GenericParser&#45;&gt;VernerParser -->
<g id="edge23" class="edge">
<title>GenericParser&#45;&gt;VernerParser</title>
<path fill="none" stroke="#000000" stroke-width=".5" d="M34.5453,-165.8959C40.4602,-140.2415 59.8497,-69.2322 101,-27.5 103.0282,-25.4431 105.3381,-23.5896 107.7921,-21.926"/>
<polygon fill="#000000" stroke="#000000" stroke-width=".5" points="108.9918,-23.2429 112.3355,-19.134 107.1593,-20.2609 108.9918,-23.2429"/>
</g>
<!-- CilvlParser -->
<g id="node3" class="node">
<title>CilvlParser</title>
<g id="a_node3"><a xlink:href="../../api/fiasco.io.sources.CilvlParser.html#fiasco.io.sources.CilvlParser" xlink:title="CilvlParser" target="_top">
<polygon fill="none" stroke="#000000" stroke-width=".5" points="275,-500 221,-500 221,-481 275,-481 275,-500"/>
<text text-anchor="middle" x="248" y="-488" font-family="Vera Sans, DejaVu Sans, Liberation Sans, Arial, Helvetica, sans" font-size="10.00" fill="#000000">CilvlParser</text>
</a>
</g>
</g>
<!-- ReclvlParser -->
<g id="node21" class="node">
<title>ReclvlParser</title>
<g id="a_node21"><a xlink:href="../../api/fiasco.io.sources.ReclvlParser.html#fiasco.io.sources.ReclvlParser" xlink:title="ReclvlParser" target="_top">
<polygon fill="none" stroke="#000000" stroke-width=".5" points="384,-500 325,-500 325,-481 384,-481 384,-500"/>
<text text-anchor="middle" x="354.5" y="-488" font-family="Vera Sans, DejaVu Sans, Liberation Sans, Arial, Helvetica, sans" font-size="10.00" fill="#000000">ReclvlParser</text>
</a>
</g>
</g>
<!-- CilvlParser&#45;&gt;ReclvlParser -->
<g id="edge19" class="edge">
<title>CilvlParser&#45;&gt;ReclvlParser</title>
<path fill="none" stroke="#000000" stroke-width=".5" d="M275.15,-490.5C288.6522,-490.5 305.1288,-490.5 319.5618,-490.5"/>
<polygon fill="#000000" stroke="#000000" stroke-width=".5" points="319.7774,-492.2501 324.7774,-490.5 319.7774,-488.7501 319.7774,-492.2501"/>
</g>
<!-- GenericIonParser&#45;&gt;CilvlParser -->
<g id="edge2" class="edge">
<title>GenericIonParser&#45;&gt;CilvlParser</title>
<path fill="none" stroke="#000000" stroke-width=".5" d="M164.8632,-315.1243C169.0661,-317.6337 173.0079,-320.725 176,-324.5 218.0498,-377.5522 169.8093,-419.5598 212,-472.5 213.6032,-474.5117 215.4897,-476.317 217.545,-477.9337"/>
<polygon fill="#000000" stroke="#000000" stroke-width=".5" points="216.8567,-479.5857 221.9638,-480.993 218.849,-476.708 216.8567,-479.5857"/>
</g>
<!-- DiparamsParser -->
<g id="node5" class="node">
<title>DiparamsParser</title>
<g id="a_node5"><a xlink:href="../../api/fiasco.io.sources.DiparamsParser.html#fiasco.io.sources.DiparamsParser" xlink:title="Scaled cross&#45;sections for calculating the ionization rate due to direct ionization. See [1]_ " target="_top">
<polygon fill="none" stroke="#000000" stroke-width=".5" points="283.5,-463 212.5,-463 212.5,-444 283.5,-444 283.5,-463"/>
<text text-anchor="middle" x="248" y="-451" font-family="Vera Sans, DejaVu Sans, Liberation Sans, Arial, Helvetica, sans" font-size="10.00" fill="#000000">DiparamsParser</text>
</a>
</g>
</g>
<!-- GenericIonParser&#45;&gt;DiparamsParser -->
<g id="edge3" class="edge">
<title>GenericIonParser&#45;&gt;DiparamsParser</title>
<path fill="none" stroke="#000000" stroke-width=".5" d="M164.2479,-315.0892C168.6153,-317.6207 172.7736,-320.729 176,-324.5 209.7165,-363.9078 178.1788,-396.182 212,-435.5 213.6775,-437.4501 215.617,-439.2116 217.7084,-440.7984"/>
<polygon fill="#000000" stroke="#000000" stroke-width=".5" points="217.0557,-442.469 222.1794,-443.8145 219.013,-439.5675 217.0557,-442.469"/>
</g>
<!-- DrparamsParser -->
<g id="node6" class="node">
<title>DrparamsParser</title>
<g id="a_node6"><a xlink:href="../../api/fiasco.io.sources.DrparamsParser.html#fiasco.io.sources.DrparamsParser" xlink:title="Fit parameters for calculating dielectronic recombination. The first fit type is given by Eq. 3 " target="_top">
<polygon fill="none" stroke="#000000" stroke-width=".5" points="284,-426 212,-426 212,-407 284,-407 284,-426"/>
<text text-anchor="middle" x="248" y="-414" font-family="Vera Sans, DejaVu Sans, Liberation Sans, Arial, Helvetica, sans" font-size="10.00" fill="#000000">DrparamsParser</text>
</a>
</g>
</g>
<!-- GenericIonParser&#45;&gt;DrparamsParser -->
<g id="edge4" class="edge">
<title>GenericIonParser&#45;&gt;DrparamsParser</title>
<path fill="none" stroke="#000000" stroke-width=".5" d="M163.0578,-315.0315C167.7357,-317.6127 172.3145,-320.7543 176,-324.5 201.6518,-350.5704 186.279,-372.4979 212,-398.5 214.0271,-400.5492 216.3356,-402.4054 218.7822,-404.0776"/>
<polygon fill="#000000" stroke="#000000" stroke-width=".5" points="218.1344,-405.7355 223.3044,-406.8906 219.9831,-402.7636 218.1344,-405.7355"/>
</g>
<!-- EasplomParser -->
<g id="node7" class="node">
<title>EasplomParser</title>
<g id="a_node7"><a xlink:href="../../api/fiasco.io.sources.EasplomParser.html#fiasco.io.sources.EasplomParser" xlink:title="Spline fits to the excitation&#45;autoionization scaled cross&#45;sections. See [1]_ and [2]_" target="_top">
<polygon fill="none" stroke="#000000" stroke-width=".5" points="282,-389 214,-389 214,-370 282,-370 282,-389"/>
<text text-anchor="middle" x="248" y="-377" font-family="Vera Sans, DejaVu Sans, Liberation Sans, Arial, Helvetica, sans" font-size="10.00" fill="#000000">EasplomParser</text>
</a>
</g>
</g>
<!-- GenericIonParser&#45;&gt;EasplomParser -->
<g id="edge5" class="edge">
<title>GenericIonParser&#45;&gt;EasplomParser</title>
<path fill="none" stroke="#000000" stroke-width=".5" d="M160.6325,-315.1887C165.87,-317.8886 171.2961,-321.0412 176,-324.5 194.4846,-338.0919 193.4793,-347.9573 212,-361.5 214.9472,-363.6551 218.191,-365.6803 221.4876,-367.5388"/>
<polygon fill="#000000" stroke="#000000" stroke-width=".5" points="220.761,-369.1351 225.9928,-369.9665 222.4213,-366.054 220.761,-369.1351"/>
</g>
<!-- ElvlcParser -->
<g id="node9" class="node">
<title>ElvlcParser</title>
<g id="a_node9"><a xlink:href="../../api/fiasco.io.sources.ElvlcParser.html#fiasco.io.sources.ElvlcParser" xlink:title="Energy levels and configurations for each level in an ion." target="_top">
<polygon fill="none" stroke="#000000" stroke-width=".5" points="275,-352 221,-352 221,-333 275,-333 275,-352"/>
<text text-anchor="middle" x="248" y="-340" font-family="Vera Sans, DejaVu Sans, Liberation Sans, Arial, Helvetica, sans" font-size="10.00" fill="#000000">ElvlcParser</text>
</a>
</g>
</g>
<!-- GenericIonParser&#45;&gt;ElvlcParser -->
<g id="edge7" class="edge">
<title>GenericIonParser&#45;&gt;ElvlcParser</title>
<path fill="none" stroke="#000000" stroke-width=".5" d="M166.699,-315.0284C181.7448,-320.1124 200.3203,-326.389 215.916,-331.6588"/>
<polygon fill="#000000" stroke="#000000" stroke-width=".5" points="215.3561,-333.3168 220.6532,-333.2595 216.4765,-330.001 215.3561,-333.3168"/>
</g>
<!-- FblvlParser -->
<g id="node10" class="node">
<title>FblvlParser</title>
<g id="a_node10"><a xlink:href="../../api/fiasco.io.sources.FblvlParser.html#fiasco.io.sources.FblvlParser" xlink:title="Energy levels and configuration related to the calculation of the free&#45;bound" target="_top">
<polygon fill="none" stroke="#000000" stroke-width=".5" points="275,-315 221,-315 221,-296 275,-296 275,-315"/>
<text text-anchor="middle" x="248" y="-303" font-family="Vera Sans, DejaVu Sans, Liberation Sans, Arial, Helvetica, sans" font-size="10.00" fill="#000000">FblvlParser</text>
</a>
</g>
</g>
<!-- GenericIonParser&#45;&gt;FblvlParser -->
<g id="edge8" class="edge">
<title>GenericIonParser&#45;&gt;FblvlParser</title>
<path fill="none" stroke="#000000" stroke-width=".5" d="M176.1837,-305.5C189.0669,-305.5 203.3509,-305.5 215.7649,-305.5"/>
<polygon fill="#000000" stroke="#000000" stroke-width=".5" points="215.9612,-307.2501 220.9611,-305.5 215.9611,-303.7501 215.9612,-307.2501"/>
</g>
<!-- ScupsParser -->
<g id="node20" class="node">
<title>ScupsParser</title>
<g id="a_node20"><a xlink:href="../../api/fiasco.io.sources.ScupsParser.html#fiasco.io.sources.ScupsParser" xlink:title="Scaled collisions strengths (denoted by upsilon) between energy levels as described" target="_top">
<polygon fill="none" stroke="#000000" stroke-width=".5" points="277.5,-278 218.5,-278 218.5,-259 277.5,-259 277.5,-278"/>
<text text-anchor="middle" x="248" y="-266" font-family="Vera Sans, DejaVu Sans, Liberation Sans, Arial, Helvetica, sans" font-size="10.00" fill="#000000">ScupsParser</text>
</a>
</g>
</g>
<!-- GenericIonParser&#45;&gt;ScupsParser -->
<g id="edge21" class="edge">
<title>GenericIonParser&#45;&gt;ScupsParser</title>
<path fill="none" stroke="#000000" stroke-width=".5" d="M166.699,-295.9716C181.2735,-291.0469 199.16,-285.003 214.4419,-279.8393"/>
<polygon fill="#000000" stroke="#000000" stroke-width=".5" points="215.3393,-281.3833 219.516,-278.1247 214.2189,-278.0675 215.3393,-281.3833"/>
</g>
<!-- RrparamsParser -->
<g id="node22" class="node">
<title>RrparamsParser</title>
<g id="a_node22"><a xlink:href="../../api/fiasco.io.sources.RrparamsParser.html#fiasco.io.sources.RrparamsParser" xlink:title="Fit parameters for calculating radiative recombination rates. The first two fit types are " target="_top">
<polygon fill="none" stroke="#000000" stroke-width=".5" points="284,-241 212,-241 212,-222 284,-222 284,-241"/>
<text text-anchor="middle" x="248" y="-229" font-family="Vera Sans, DejaVu Sans, Liberation Sans, Arial, Helvetica, sans" font-size="10.00" fill="#000000">RrparamsParser</text>
</a>
</g>
</g>
<!-- GenericIonParser&#45;&gt;RrparamsParser -->
<g id="edge20" class="edge">
<title>GenericIonParser&#45;&gt;RrparamsParser</title>
<path fill="none" stroke="#000000" stroke-width=".5" d="M161.8637,-295.9162C166.7267,-293.4804 171.6818,-290.6482 176,-287.5 194.7987,-273.7944 193.3124,-263.3567 212,-249.5 214.7258,-247.4788 217.7129,-245.5767 220.7641,-243.8213"/>
<polygon fill="#000000" stroke="#000000" stroke-width=".5" points="222.0351,-245.121 225.5833,-241.1874 220.3565,-242.0498 222.0351,-245.121"/>
</g>
<!-- TrparamsParser -->
<g id="node23" class="node">
<title>TrparamsParser</title>
<g id="a_node23"><a xlink:href="../../api/fiasco.io.sources.TrparamsParser.html#fiasco.io.sources.TrparamsParser" xlink:title="TrparamsParser" target="_top">
<polygon fill="none" stroke="#000000" stroke-width=".5" points="283.5,-204 212.5,-204 212.5,-185 283.5,-185 283.5,-204"/>
<text text-anchor="middle" x="248" y="-192" font-family="Vera Sans, DejaVu Sans, Liberation Sans, Arial, Helvetica, sans" font-size="10.00" fill="#000000">TrparamsParser</text>
</a>
</g>
</g>
<!-- GenericIonParser&#45;&gt;TrparamsParser -->
<g id="edge22" class="edge">
<title>GenericIonParser&#45;&gt;TrparamsParser</title>
<path fill="none" stroke="#000000" stroke-width=".5" d="M164.6257,-295.8274C168.7541,-293.5272 172.7319,-290.7681 176,-287.5 202.1449,-261.3551 186.0668,-238.8549 212,-212.5 214.0217,-210.4454 216.3265,-208.5857 218.7708,-206.9112"/>
<polygon fill="#000000" stroke="#000000" stroke-width=".5" points="219.9719,-208.2248 223.2901,-204.0953 218.121,-205.2542 219.9719,-208.2248"/>
</g>
<!-- WgfaParser -->
<g id="node25" class="node">
<title>WgfaParser</title>
<g id="a_node25"><a xlink:href="../../api/fiasco.io.sources.WgfaParser.html#fiasco.io.sources.WgfaParser" xlink:title="Information about each possible transition in an ion, including level indices, wavelengths, " target="_top">
<polygon fill="none" stroke="#000000" stroke-width=".5" points="276,-167 220,-167 220,-148 276,-148 276,-167"/>
<text text-anchor="middle" x="248" y="-155" font-family="Vera Sans, DejaVu Sans, Liberation Sans, Arial, Helvetica, sans" font-size="10.00" fill="#000000">WgfaParser</text>
</a>
</g>
</g>
<!-- GenericIonParser&#45;&gt;WgfaParser -->
<g id="edge24" class="edge">
<title>GenericIonParser&#45;&gt;WgfaParser</title>
<path fill="none" stroke="#000000" stroke-width=".5" d="M165.397,-295.9698C169.3405,-293.6703 173.0573,-290.8746 176,-287.5 210.3639,-248.0925 177.955,-215.1833 212,-175.5 213.6749,-173.5477 215.6126,-171.7846 217.7027,-170.1968"/>
<polygon fill="#000000" stroke="#000000" stroke-width=".5" points="219.0074,-171.4275 222.172,-167.1791 217.0488,-168.5268 219.0074,-171.4275"/>
</g>
<!-- EasplupsParser -->
<g id="node8" class="node">
<title>EasplupsParser</title>
<g id="a_node8"><a xlink:href="../../api/fiasco.io.sources.EasplupsParser.html#fiasco.io.sources.EasplupsParser" xlink:title="Scaled collision strengths for calculating ionization rates due to excitation autoionization." target="_top">
<polygon fill="none" stroke="#000000" stroke-width=".5" points="389,-389 320,-389 320,-370 389,-370 389,-389"/>
<text text-anchor="middle" x="354.5" y="-377" font-family="Vera Sans, DejaVu Sans, Liberation Sans, Arial, Helvetica, sans" font-size="10.00" fill="#000000">EasplupsParser</text>
</a>
</g>
</g>
<!-- EasplomParser&#45;&gt;EasplupsParser -->
<g id="edge6" class="edge">
<title>EasplomParser&#45;&gt;EasplupsParser</title>
<path fill="none" stroke="#000000" stroke-width=".5" d="M282.2835,-379.5C292.6302,-379.5 304.0759,-379.5 314.7473,-379.5"/>
<polygon fill="#000000" stroke="#000000" stroke-width=".5" points="314.9156,-381.2501 319.9156,-379.5 314.9156,-377.7501 314.9156,-381.2501"/>
</g>
<!-- GffintParser -->
<g id="node12" class="node">
<title>GffintParser</title>
<g id="a_node12"><a xlink:href="../../api/fiasco.io.sources.GffintParser.html#fiasco.io.sources.GffintParser" xlink:title="Total free&#45;free Gaunt factor as a function of scaled temperature." target="_top">
<polygon fill="none" stroke="#000000" stroke-width=".5" points="276.5,-130 219.5,-130 219.5,-111 276.5,-111 276.5,-130"/>
<text text-anchor="middle" x="248" y="-118" font-family="Vera Sans, DejaVu Sans, Liberation Sans, Arial, Helvetica, sans" font-size="10.00" fill="#000000">GffintParser</text>
</a>
</g>
</g>
<!-- GffguParser&#45;&gt;GffintParser -->
<g id="edge11" class="edge">
<title>GffguParser&#45;&gt;GffintParser</title>
<path fill="none" stroke="#000000" stroke-width=".5" d="M164.2479,-258.9108C168.6153,-256.3793 172.7736,-253.271 176,-249.5 209.7165,-210.0922 178.1788,-177.818 212,-138.5 213.6775,-136.5499 215.617,-134.7884 217.7084,-133.2016"/>
<polygon fill="#000000" stroke="#000000" stroke-width=".5" points="219.013,-134.4325 222.1794,-130.1855 217.0557,-131.531 219.013,-134.4325"/>
</g>
<!-- PsplupsParser -->
<g id="node19" class="node">
<title>PsplupsParser</title>
<g id="a_node19"><a xlink:href="../../api/fiasco.io.sources.PsplupsParser.html#fiasco.io.sources.PsplupsParser" xlink:title="Spline fits to scaled collision rates for protons. These files are discussed in" target="_top">
<polygon fill="none" stroke="#000000" stroke-width=".5" points="387,-278 322,-278 322,-259 387,-259 387,-278"/>
<text text-anchor="middle" x="354.5" y="-266" font-family="Vera Sans, DejaVu Sans, Liberation Sans, Arial, Helvetica, sans" font-size="10.00" fill="#000000">PsplupsParser</text>
</a>
</g>
</g>
<!-- ScupsParser&#45;&gt;PsplupsParser -->
<g id="edge18" class="edge">
<title>ScupsParser&#45;&gt;PsplupsParser</title>
<path fill="none" stroke="#000000" stroke-width=".5" d="M277.6662,-268.5C289.7286,-268.5 303.8143,-268.5 316.6069,-268.5"/>
<polygon fill="#000000" stroke="#000000" stroke-width=".5" points="316.6253,-270.2501 321.6252,-268.5 316.6252,-266.7501 316.6253,-270.2501"/>
</g>
</g>
</svg>
